<mxfile host="app.diagrams.net" modified="2023-09-12T14:27:18.899Z" agent="Mozilla/5.0 (Macintosh; Intel Mac OS X 10_15_7) AppleWebKit/537.36 (KHTML, like Gecko) Chrome/116.0.0.0 Safari/537.36" etag="sBVEg1JLFXLPTZs4lFyX" version="21.7.4" type="device">
  <diagram name="Page-1" id="x4vbKQXb-akzIdNosScI">
    <mxGraphModel dx="489" dy="309" grid="1" gridSize="10" guides="1" tooltips="1" connect="1" arrows="1" fold="1" page="1" pageScale="1" pageWidth="2339" pageHeight="3300" math="0" shadow="0">
      <root>
        <mxCell id="0" />
        <mxCell id="1" parent="0" />
        <mxCell id="kdvC2gsETewgO_pyv8T_-1" value="" style="endArrow=classic;html=1;rounded=0;" parent="1" edge="1">
          <mxGeometry width="50" height="50" relative="1" as="geometry">
            <mxPoint x="920" y="400" as="sourcePoint" />
            <mxPoint x="920" y="160" as="targetPoint" />
          </mxGeometry>
        </mxCell>
        <mxCell id="kdvC2gsETewgO_pyv8T_-2" value="" style="endArrow=classic;html=1;rounded=0;" parent="1" edge="1">
          <mxGeometry width="50" height="50" relative="1" as="geometry">
            <mxPoint x="920" y="400" as="sourcePoint" />
            <mxPoint x="1240" y="400" as="targetPoint" />
          </mxGeometry>
        </mxCell>
        <mxCell id="kdvC2gsETewgO_pyv8T_-43" value="" style="endArrow=none;html=1;rounded=0;strokeWidth=2;dashed=1;strokeColor=#FF3333;" parent="1" edge="1">
          <mxGeometry width="50" height="50" relative="1" as="geometry">
            <mxPoint x="980" y="245.5" as="sourcePoint" />
            <mxPoint x="1040" y="220" as="targetPoint" />
          </mxGeometry>
        </mxCell>
        <mxCell id="kdvC2gsETewgO_pyv8T_-44" value="" style="ellipse;whiteSpace=wrap;html=1;aspect=fixed;fillColor=#FF3333;direction=west;container=0;strokeColor=#FF3333;" parent="1" vertex="1">
          <mxGeometry x="980" y="260" width="5" height="5" as="geometry" />
        </mxCell>
        <mxCell id="kdvC2gsETewgO_pyv8T_-45" value="" style="ellipse;whiteSpace=wrap;html=1;aspect=fixed;fillColor=#FF3333;container=0;strokeColor=#FF3333;" parent="1" vertex="1">
          <mxGeometry x="990" y="250" width="5" height="5" as="geometry" />
        </mxCell>
        <mxCell id="kdvC2gsETewgO_pyv8T_-46" value="" style="ellipse;whiteSpace=wrap;html=1;aspect=fixed;fillColor=#FF3333;container=0;strokeColor=#FF3333;" parent="1" vertex="1">
          <mxGeometry x="1010" y="245" width="5" height="5" as="geometry" />
        </mxCell>
        <mxCell id="kdvC2gsETewgO_pyv8T_-47" value="" style="ellipse;whiteSpace=wrap;html=1;aspect=fixed;fillColor=#FF3333;container=0;strokeColor=#FF3333;" parent="1" vertex="1">
          <mxGeometry x="1005" y="217" width="5" height="5" as="geometry" />
        </mxCell>
        <mxCell id="kdvC2gsETewgO_pyv8T_-48" value="" style="ellipse;whiteSpace=wrap;html=1;aspect=fixed;fillColor=#FF3333;container=0;strokeColor=#FF3333;" parent="1" vertex="1">
          <mxGeometry x="1015" y="212" width="5" height="5" as="geometry" />
        </mxCell>
        <mxCell id="kdvC2gsETewgO_pyv8T_-49" value="" style="ellipse;whiteSpace=wrap;html=1;aspect=fixed;fillColor=#FF3333;container=0;strokeColor=#FF3333;" parent="1" vertex="1">
          <mxGeometry x="1020" y="230" width="5" height="5" as="geometry" />
        </mxCell>
        <mxCell id="kdvC2gsETewgO_pyv8T_-50" value="" style="ellipse;whiteSpace=wrap;html=1;aspect=fixed;fillColor=#FF3333;container=0;strokeColor=#FF3333;" parent="1" vertex="1">
          <mxGeometry x="1025" y="207" width="5" height="5" as="geometry" />
        </mxCell>
        <mxCell id="kdvC2gsETewgO_pyv8T_-51" value="" style="ellipse;whiteSpace=wrap;html=1;aspect=fixed;fillColor=#FF3333;direction=south;container=0;strokeColor=#FF3333;" parent="1" vertex="1">
          <mxGeometry x="980" y="232" width="5" height="5" as="geometry" />
        </mxCell>
        <mxCell id="kdvC2gsETewgO_pyv8T_-52" value="" style="ellipse;whiteSpace=wrap;html=1;aspect=fixed;fillColor=#FF3333;container=0;strokeColor=#FF3333;" parent="1" vertex="1">
          <mxGeometry x="990" y="222" width="5" height="5" as="geometry" />
        </mxCell>
        <mxCell id="kdvC2gsETewgO_pyv8T_-53" value="" style="endArrow=none;html=1;rounded=0;strokeWidth=3;" parent="1" edge="1">
          <mxGeometry width="50" height="50" relative="1" as="geometry">
            <mxPoint x="1230" y="190" as="sourcePoint" />
            <mxPoint x="920" y="320" as="targetPoint" />
          </mxGeometry>
        </mxCell>
        <mxCell id="kdvC2gsETewgO_pyv8T_-54" value="x" style="text;html=1;strokeColor=none;fillColor=none;align=center;verticalAlign=middle;whiteSpace=wrap;rounded=0;" parent="1" vertex="1">
          <mxGeometry x="1044" y="400" width="60" height="30" as="geometry" />
        </mxCell>
        <mxCell id="kdvC2gsETewgO_pyv8T_-55" value="y" style="text;html=1;strokeColor=none;fillColor=none;align=center;verticalAlign=middle;whiteSpace=wrap;rounded=0;" parent="1" vertex="1">
          <mxGeometry x="890" y="254.5" width="30" height="30" as="geometry" />
        </mxCell>
        <mxCell id="df71JoKYN2nZ6GT23VR3-2" value="" style="endArrow=none;html=1;rounded=0;strokeWidth=2;dashed=1;strokeColor=#9999FF;" edge="1" parent="1">
          <mxGeometry width="50" height="50" relative="1" as="geometry">
            <mxPoint x="1070" y="225.5" as="sourcePoint" />
            <mxPoint x="1130" y="200" as="targetPoint" />
          </mxGeometry>
        </mxCell>
        <mxCell id="df71JoKYN2nZ6GT23VR3-3" value="" style="ellipse;whiteSpace=wrap;html=1;aspect=fixed;fillColor=#9999FF;direction=south;container=0;strokeColor=#9999FF;" vertex="1" parent="1">
          <mxGeometry x="1070" y="240" width="5" height="5" as="geometry" />
        </mxCell>
        <mxCell id="df71JoKYN2nZ6GT23VR3-4" value="" style="ellipse;whiteSpace=wrap;html=1;aspect=fixed;fillColor=#9999FF;container=0;strokeColor=#9999FF;" vertex="1" parent="1">
          <mxGeometry x="1080" y="230" width="5" height="5" as="geometry" />
        </mxCell>
        <mxCell id="df71JoKYN2nZ6GT23VR3-5" value="" style="ellipse;whiteSpace=wrap;html=1;aspect=fixed;fillColor=#9999FF;container=0;strokeColor=#9999FF;" vertex="1" parent="1">
          <mxGeometry x="1100" y="225" width="5" height="5" as="geometry" />
        </mxCell>
        <mxCell id="df71JoKYN2nZ6GT23VR3-6" value="" style="ellipse;whiteSpace=wrap;html=1;aspect=fixed;fillColor=#9999FF;container=0;strokeColor=#9999FF;" vertex="1" parent="1">
          <mxGeometry x="1095" y="197" width="5" height="5" as="geometry" />
        </mxCell>
        <mxCell id="df71JoKYN2nZ6GT23VR3-7" value="" style="ellipse;whiteSpace=wrap;html=1;aspect=fixed;fillColor=#9999FF;container=0;strokeColor=#9999FF;" vertex="1" parent="1">
          <mxGeometry x="1105" y="192" width="5" height="5" as="geometry" />
        </mxCell>
        <mxCell id="df71JoKYN2nZ6GT23VR3-8" value="" style="ellipse;whiteSpace=wrap;html=1;aspect=fixed;fillColor=#9999FF;container=0;strokeColor=#9999FF;" vertex="1" parent="1">
          <mxGeometry x="1110" y="210" width="5" height="5" as="geometry" />
        </mxCell>
        <mxCell id="df71JoKYN2nZ6GT23VR3-9" value="" style="ellipse;whiteSpace=wrap;html=1;aspect=fixed;fillColor=#9999FF;container=0;strokeColor=#9999FF;" vertex="1" parent="1">
          <mxGeometry x="1115" y="187" width="5" height="5" as="geometry" />
        </mxCell>
        <mxCell id="df71JoKYN2nZ6GT23VR3-10" value="" style="ellipse;whiteSpace=wrap;html=1;aspect=fixed;fillColor=#9999FF;direction=west;container=0;strokeColor=#9999FF;" vertex="1" parent="1">
          <mxGeometry x="1070" y="212" width="5" height="5" as="geometry" />
        </mxCell>
        <mxCell id="df71JoKYN2nZ6GT23VR3-11" value="" style="ellipse;whiteSpace=wrap;html=1;aspect=fixed;fillColor=#9999FF;container=0;strokeColor=#9999FF;" vertex="1" parent="1">
          <mxGeometry x="1080" y="202" width="5" height="5" as="geometry" />
        </mxCell>
        <mxCell id="df71JoKYN2nZ6GT23VR3-12" value="" style="endArrow=none;html=1;rounded=0;strokeWidth=2;dashed=1;strokeColor=#FF3333;" edge="1" parent="1">
          <mxGeometry width="50" height="50" relative="1" as="geometry">
            <mxPoint x="997.5" y="323" as="sourcePoint" />
            <mxPoint x="1057.5" y="297.5" as="targetPoint" />
          </mxGeometry>
        </mxCell>
        <mxCell id="df71JoKYN2nZ6GT23VR3-13" value="" style="ellipse;whiteSpace=wrap;html=1;aspect=fixed;fillColor=#FF8000;direction=south;container=0;strokeColor=#FF8000;" vertex="1" parent="1">
          <mxGeometry x="997.5" y="337.5" width="5" height="5" as="geometry" />
        </mxCell>
        <mxCell id="df71JoKYN2nZ6GT23VR3-14" value="" style="ellipse;whiteSpace=wrap;html=1;aspect=fixed;fillColor=#FF8000;container=0;strokeColor=#FF8000;" vertex="1" parent="1">
          <mxGeometry x="1007.5" y="327.5" width="5" height="5" as="geometry" />
        </mxCell>
        <mxCell id="df71JoKYN2nZ6GT23VR3-15" value="" style="ellipse;whiteSpace=wrap;html=1;aspect=fixed;fillColor=#FF8000;container=0;strokeColor=#FF8000;" vertex="1" parent="1">
          <mxGeometry x="1027.5" y="322.5" width="5" height="5" as="geometry" />
        </mxCell>
        <mxCell id="df71JoKYN2nZ6GT23VR3-16" value="" style="ellipse;whiteSpace=wrap;html=1;aspect=fixed;fillColor=#FF8000;container=0;strokeColor=#FF8000;" vertex="1" parent="1">
          <mxGeometry x="1022.5" y="294.5" width="5" height="5" as="geometry" />
        </mxCell>
        <mxCell id="df71JoKYN2nZ6GT23VR3-17" value="" style="ellipse;whiteSpace=wrap;html=1;aspect=fixed;fillColor=#FF8000;container=0;strokeColor=#FF8000;" vertex="1" parent="1">
          <mxGeometry x="1032.5" y="289.5" width="5" height="5" as="geometry" />
        </mxCell>
        <mxCell id="df71JoKYN2nZ6GT23VR3-18" value="" style="ellipse;whiteSpace=wrap;html=1;aspect=fixed;fillColor=#FF8000;container=0;strokeColor=#FF8000;" vertex="1" parent="1">
          <mxGeometry x="1037.5" y="307.5" width="5" height="5" as="geometry" />
        </mxCell>
        <mxCell id="df71JoKYN2nZ6GT23VR3-19" value="" style="ellipse;whiteSpace=wrap;html=1;aspect=fixed;fillColor=#FF8000;container=0;strokeColor=#FF8000;" vertex="1" parent="1">
          <mxGeometry x="1042.5" y="284.5" width="5" height="5" as="geometry" />
        </mxCell>
        <mxCell id="df71JoKYN2nZ6GT23VR3-20" value="" style="ellipse;whiteSpace=wrap;html=1;aspect=fixed;fillColor=#FF8000;direction=south;container=0;strokeColor=#FF8000;" vertex="1" parent="1">
          <mxGeometry x="997.5" y="309.5" width="5" height="5" as="geometry" />
        </mxCell>
        <mxCell id="df71JoKYN2nZ6GT23VR3-21" value="" style="ellipse;whiteSpace=wrap;html=1;aspect=fixed;fillColor=#FF8000;container=0;strokeColor=#FF8000;" vertex="1" parent="1">
          <mxGeometry x="1007.5" y="299.5" width="5" height="5" as="geometry" />
        </mxCell>
        <mxCell id="df71JoKYN2nZ6GT23VR3-22" value="" style="endArrow=none;html=1;rounded=0;strokeWidth=2;dashed=1;strokeColor=#00FF00;" edge="1" parent="1">
          <mxGeometry width="50" height="50" relative="1" as="geometry">
            <mxPoint x="1110" y="280" as="sourcePoint" />
            <mxPoint x="1170" y="254.5" as="targetPoint" />
          </mxGeometry>
        </mxCell>
        <mxCell id="df71JoKYN2nZ6GT23VR3-23" value="" style="ellipse;whiteSpace=wrap;html=1;aspect=fixed;fillColor=#00FF00;direction=south;container=0;strokeColor=#00FF00;" vertex="1" parent="1">
          <mxGeometry x="1110" y="294.5" width="5" height="5" as="geometry" />
        </mxCell>
        <mxCell id="df71JoKYN2nZ6GT23VR3-24" value="" style="ellipse;whiteSpace=wrap;html=1;aspect=fixed;fillColor=#00FF00;container=0;strokeColor=#00FF00;" vertex="1" parent="1">
          <mxGeometry x="1120" y="284.5" width="5" height="5" as="geometry" />
        </mxCell>
        <mxCell id="df71JoKYN2nZ6GT23VR3-25" value="" style="ellipse;whiteSpace=wrap;html=1;aspect=fixed;fillColor=#00FF00;container=0;strokeColor=#00FF00;" vertex="1" parent="1">
          <mxGeometry x="1140" y="279.5" width="5" height="5" as="geometry" />
        </mxCell>
        <mxCell id="df71JoKYN2nZ6GT23VR3-26" value="" style="ellipse;whiteSpace=wrap;html=1;aspect=fixed;fillColor=#00FF00;container=0;strokeColor=#00FF00;" vertex="1" parent="1">
          <mxGeometry x="1135" y="251.5" width="5" height="5" as="geometry" />
        </mxCell>
        <mxCell id="df71JoKYN2nZ6GT23VR3-27" value="" style="ellipse;whiteSpace=wrap;html=1;aspect=fixed;fillColor=#00FF00;container=0;strokeColor=#00FF00;" vertex="1" parent="1">
          <mxGeometry x="1145" y="246.5" width="5" height="5" as="geometry" />
        </mxCell>
        <mxCell id="df71JoKYN2nZ6GT23VR3-28" value="" style="ellipse;whiteSpace=wrap;html=1;aspect=fixed;fillColor=#00FF00;container=0;strokeColor=#00FF00;" vertex="1" parent="1">
          <mxGeometry x="1150" y="264.5" width="5" height="5" as="geometry" />
        </mxCell>
        <mxCell id="df71JoKYN2nZ6GT23VR3-29" value="" style="ellipse;whiteSpace=wrap;html=1;aspect=fixed;fillColor=#00FF00;container=0;strokeColor=#00FF00;" vertex="1" parent="1">
          <mxGeometry x="1155" y="241.5" width="5" height="5" as="geometry" />
        </mxCell>
        <mxCell id="df71JoKYN2nZ6GT23VR3-30" value="" style="ellipse;whiteSpace=wrap;html=1;aspect=fixed;fillColor=#00FF00;direction=south;container=0;strokeColor=#00FF00;" vertex="1" parent="1">
          <mxGeometry x="1110" y="266.5" width="5" height="5" as="geometry" />
        </mxCell>
        <mxCell id="df71JoKYN2nZ6GT23VR3-31" value="" style="ellipse;whiteSpace=wrap;html=1;aspect=fixed;fillColor=#00FF00;container=0;strokeColor=#00FF00;" vertex="1" parent="1">
          <mxGeometry x="1120" y="256.5" width="5" height="5" as="geometry" />
        </mxCell>
        <mxCell id="df71JoKYN2nZ6GT23VR3-32" value="" style="endArrow=none;html=1;rounded=0;strokeWidth=2;dashed=1;strokeColor=#FF66B3;" edge="1" parent="1">
          <mxGeometry width="50" height="50" relative="1" as="geometry">
            <mxPoint x="1160" y="172.5" as="sourcePoint" />
            <mxPoint x="1220" y="147" as="targetPoint" />
          </mxGeometry>
        </mxCell>
        <mxCell id="df71JoKYN2nZ6GT23VR3-33" value="" style="ellipse;whiteSpace=wrap;html=1;aspect=fixed;fillColor=#FF66B3;direction=south;container=0;strokeColor=#FF66B3;" vertex="1" parent="1">
          <mxGeometry x="1160" y="187" width="5" height="5" as="geometry" />
        </mxCell>
        <mxCell id="df71JoKYN2nZ6GT23VR3-34" value="" style="ellipse;whiteSpace=wrap;html=1;aspect=fixed;fillColor=#FF66B3;container=0;strokeColor=#FF66B3;" vertex="1" parent="1">
          <mxGeometry x="1170" y="177" width="5" height="5" as="geometry" />
        </mxCell>
        <mxCell id="df71JoKYN2nZ6GT23VR3-35" value="" style="ellipse;whiteSpace=wrap;html=1;aspect=fixed;fillColor=#FF66B3;container=0;strokeColor=#FF66B3;" vertex="1" parent="1">
          <mxGeometry x="1190" y="172" width="5" height="5" as="geometry" />
        </mxCell>
        <mxCell id="df71JoKYN2nZ6GT23VR3-36" value="" style="ellipse;whiteSpace=wrap;html=1;aspect=fixed;fillColor=#FF66B3;container=0;strokeColor=#FF66B3;" vertex="1" parent="1">
          <mxGeometry x="1185" y="144" width="5" height="5" as="geometry" />
        </mxCell>
        <mxCell id="df71JoKYN2nZ6GT23VR3-37" value="" style="ellipse;whiteSpace=wrap;html=1;aspect=fixed;fillColor=#FF66B3;container=0;strokeColor=#FF66B3;" vertex="1" parent="1">
          <mxGeometry x="1195" y="139" width="5" height="5" as="geometry" />
        </mxCell>
        <mxCell id="df71JoKYN2nZ6GT23VR3-38" value="" style="ellipse;whiteSpace=wrap;html=1;aspect=fixed;fillColor=#FF66B3;container=0;strokeColor=#FF66B3;" vertex="1" parent="1">
          <mxGeometry x="1200" y="157" width="5" height="5" as="geometry" />
        </mxCell>
        <mxCell id="df71JoKYN2nZ6GT23VR3-39" value="" style="ellipse;whiteSpace=wrap;html=1;aspect=fixed;fillColor=#FF66B3;container=0;strokeColor=#FF66B3;" vertex="1" parent="1">
          <mxGeometry x="1205" y="134" width="5" height="5" as="geometry" />
        </mxCell>
        <mxCell id="df71JoKYN2nZ6GT23VR3-40" value="" style="ellipse;whiteSpace=wrap;html=1;aspect=fixed;fillColor=#FF66B3;direction=south;container=0;strokeColor=#FF66B3;" vertex="1" parent="1">
          <mxGeometry x="1160" y="159" width="5" height="5" as="geometry" />
        </mxCell>
        <mxCell id="df71JoKYN2nZ6GT23VR3-41" value="" style="ellipse;whiteSpace=wrap;html=1;aspect=fixed;fillColor=#FF66B3;container=0;strokeColor=#FF66B3;" vertex="1" parent="1">
          <mxGeometry x="1170" y="149" width="5" height="5" as="geometry" />
        </mxCell>
      </root>
    </mxGraphModel>
  </diagram>
</mxfile>
